HIERARCHY
ROOT Hips
{
  OFFSET -32.5998 29.0326 120.673
  CHANNELS 6 Xposition Yposition Zposition Zrotation Xrotation Yrotation
  JOINT LeftUpLeg
  {
    OFFSET 8.64259 1.95398 -2.38835
    CHANNELS 3 Zrotation Xrotation Yrotation
    JOINT LeftLeg
    {
      OFFSET 43.7702 0 0
      CHANNELS 3 Zrotation Xrotation Yrotation
      JOINT LeftFoot
      {
        OFFSET 40.6238 0 0
        CHANNELS 3 Zrotation Xrotation Yrotation
        JOINT LeftToeBase
        {
          OFFSET 12.7242 0 0
          CHANNELS 3 Zrotation Xrotation Yrotation
          End Site
          {
            OFFSET 0 0 0
          }
        }
      }
    }
  }
  JOINT RightUpLeg
  {
    OFFSET -8.2249 1.95398 -2.59336
    CHANNELS 3 Zrotation Xrotation Yrotation
    JOINT RightLeg
    {
      OFFSET 43.5653 0 0
      CHANNELS 3 Zrotation Xrotation Yrotation
      JOINT RightFoot
      {
        OFFSET 40.6238 0 0
        CHANNELS 3 Zrotation Xrotation Yrotation
        JOINT RightToeBase
        {
          OFFSET 12.7242 0 0
          CHANNELS 3 Zrotation Xrotation Yrotation
          End Site
          {
            OFFSET 0 0 0
          }
        }
      }
    }
  }
  JOINT Spine
  {
    OFFSET 0.165834 0.87714 6.61349
    CHANNELS 3 Zrotation Xrotation Yrotation
    JOINT Spine1
    {
      OFFSET 7.38963 1.71661e-005 0
      CHANNELS 3 Zrotation Xrotation Yrotation
      JOINT Spine2
      {
        OFFSET 11.9445 1.14441e-005 0
        CHANNELS 3 Zrotation Xrotation Yrotation
        JOINT Spine3
        {
          OFFSET 14.7254 4.19617e-005 0
          CHANNELS 3 Zrotation Xrotation Yrotation
          JOINT Spine4
          {
            OFFSET 10.9679 0 0
            CHANNELS 3 Zrotation Xrotation Yrotation
            JOINT RightShoulder
            {
              OFFSET 2.46616 -1.6653 3.69651
              CHANNELS 3 Zrotation Xrotation Yrotation
              JOINT RightArm
              {
                OFFSET 13.0012 0 0
                CHANNELS 3 Zrotation Xrotation Yrotation
                JOINT RightForeArm
                {
                  OFFSET 28.7848 1.62311e-005 0
                  CHANNELS 3 Zrotation Xrotation Yrotation
                  JOINT RightHand
                  {
                    OFFSET 26.5688 1.62095e-005 0
                    CHANNELS 3 Zrotation Xrotation Yrotation
                    End Site
                    {
                      OFFSET 0 0 0
                    }
                  }
                }
              }
            }
            JOINT LeftShoulder
            {
              OFFSET 2.38034 -1.29275 -3.7523
              CHANNELS 3 Zrotation Xrotation Yrotation
              JOINT LeftArm
              {
                OFFSET 16.3182 6.07031e-005 0
                CHANNELS 3 Zrotation Xrotation Yrotation
                JOINT LeftForeArm
                {
                  OFFSET 27.0901 0 0
                  CHANNELS 3 Zrotation Xrotation Yrotation
                  JOINT LeftHand
                  {
                    OFFSET 24.5451 1.51738e-005 0
                    CHANNELS 3 Zrotation Xrotation Yrotation
                    End Site
                    {
                      OFFSET 0 0 0
                    }
                  }
                }
              }
            }
            JOINT Neck
            {
              OFFSET 5.0226 -0.0266342 0
              CHANNELS 3 Zrotation Xrotation Yrotation
              JOINT Head
              {
                OFFSET 6.69364 2.86102e-005 0
                CHANNELS 3 Zrotation Xrotation Yrotation
                End Site
                {
                  OFFSET 0 0 0
                }
              }
            }
          }
        }
      }
    }
  }
}
MOTION
Frames:	9
Frame Time:	0.0416667
36.7246 101.625 -340.089 151.019 -67.6679 145.463 -164.377 -22.1899 99.0885 -5.46084 30.2183 -5.13598 72.0411 8.31985 0.872802 17.3787 -9.52487 8.35651 168.014 -29.0115 85.7029 -2.76165 0.668223 -0.663117 71.1008 -4.88542 0.48496 24.7928 0.611249 4.21096 -2.44025 7.36385 -87.1469 12.2096 -3.50002 6.0839 0.528422 -3.2294 6.23136 -21.968 -5.16476 4.75442 -1.95536 -5.16475 4.75442 68.1868 -43.4181 -136.694 49.9053 -11.6114 11.2224 -18.3209 -19.0892 -30.8702 -9.96583 -0.24589 -2.41915 -80.2041 -8.48564 89.881 -62.9914 5.71595 19.8769 20.5052 14.4716 -27.3578 -3.76036 -0.0797904 -5.25768 -15.796 6.92464 -30.9803 -7.16887 6.50265 17.2859 
35.9714 101.713 -340.297 152.274 -69.8038 146.373 -166.31 -22.0169 96.8233 -3.93747 26.6227 -3.80755 71.1421 7.66161 0.292095 18.7948 -8.89098 8.61423 167.714 -26.502 85.1695 -3.81138 -1.49028 -0.338055 71.142 -5.11799 0.0826524 24.8184 0.665023 3.983 -2.35406 7.30581 -87.369 12.3228 -3.43045 5.64008 0.643513 -3.17934 5.78504 -21.8636 -4.96544 4.35113 -1.85096 -4.96545 4.35113 70.6581 -41.8152 -134.019 49.6399 -13.0065 9.75971 -16.1601 -17.0618 -28.7885 -10.961 -0.254732 -2.57793 -79.8608 -10.8793 91.1866 -62.2207 7.51974 18.4438 19.9249 13.2463 -27.414 -5.8383 -0.0757901 -4.83787 -14.4461 6.69189 -28.2925 -6.77441 6.68277 15.8818 
34.9752 101.812 -340.821 154.534 -73.2426 148.479 -168.626 -19.1447 94.2683 -5.31131 22.2884 -2.55366 71.2294 7.69979 0.20901 20.612 -8.297 9.36316 167.901 -22.2617 85.0939 -5.75056 -4.58471 -0.0359123 71.2896 -5.50433 -0.914269 24.6832 0.676056 4.14173 -2.27452 7.20074 -87.7296 12.5296 -3.43788 4.93365 0.853261 -3.2177 5.07978 -21.6719 -4.76073 3.67386 -1.65922 -4.76072 3.67387 73.576 -38.6397 -131.454 49.2611 -15.8072 7.08667 -15.266 -17.9187 -26.9838 -11.4344 -0.120711 -4.10188 -79.0494 -15.2514 93.7733 -59.3814 8.69285 16.4672 19.1802 11.8597 -27.3396 -5.07755 -0.0702947 -5.27232 -12.0769 6.79809 -22.8155 -6.99221 7.24295 12.9964 
33.8588 101.814 -341.472 162.291 -76.1485 156.157 -170.748 -17.052 92.0932 -6.63122 16.9799 -1.03077 71.2931 7.68088 -0.416976 21.5998 -9.21024 12.086 167.707 -17.7756 84.7623 -9.49936 -8.22868 0.487525 72.5761 -6.358 -1.38756 23.9692 0.850551 4.56299 -2.02606 7.25332 -88.1764 12.4129 -3.15931 4.00313 0.739177 -2.98022 4.13809 -21.798 -4.21582 2.8691 -1.78538 -4.21583 2.86909 77.1554 -34.4045 -128.169 49.5979 -15.5367 5.60334 -16.4943 -18.738 -28.2894 -10.8146 -0.151444 -3.6824 -78.0719 -20.928 96.3579 -55.6543 10.2032 13.8915 17.9334 9.11272 -27.4984 -6.19627 -0.0339574 -6.00507 -8.19087 6.00957 -17.1797 -9.07307 6.64373 11.4714 
32.6174 101.444 -342.256 170.118 -77.1554 164.096 -172.587 -15.5894 90.747 -8.56645 12.2246 0.722453 71.5927 9.05685 -0.806299 23.8222 -8.87477 13.9367 167.193 -14.3337 84.4223 -14.2282 -10.7943 1.42086 74.8597 -7.62837 -1.10351 23.4759 0.666036 5.87874 -1.84832 7.5547 -88.6544 11.8004 -3.0434 3.00545 0.129262 -2.90824 3.13641 -22.4207 -3.80571 1.9516 -2.40805 -3.80571 1.95159 80.5708 -29.8287 -124.943 49.0538 -17.3233 2.12529 -15.2557 -17.5412 -27.0235 -12.0294 -0.208164 -3.28208 -76.8101 -27.5621 99.0451 -50.7622 11.3724 10.9305 17.7507 7.84259 -28.6626 -6.62199 -0.0156609 -6.38732 -4.11967 6.02548 -10.1131 -9.30749 6.6202 8.57553 
31.558 101.064 -343.367 171.622 -77.4503 167.039 -175.085 -6.36131 91.3017 -24.0308 5.61573 2.475 74.1387 9.24186 -5.09644 23.3047 -8.79063 13.1097 167.472 -12.6669 85.9254 -16.2809 -10.5423 2.60145 75.8717 -8.22668 -0.354886 22.6938 0.556883 7.27808 -1.65341 7.92512 -89.363 11.0441 -2.99599 1.55606 -0.624508 -2.92461 1.68648 -23.1857 -3.325 0.582903 -3.17304 -3.325 0.582898 84.1512 -24.1213 -121.567 48.3735 -20.8096 -1.95162 -13.7155 -15.8525 -25.3007 -11.5602 -0.0236488 -5.12205 -75.8535 -36.1318 100.595 -44.1213 11.7451 8.17363 17.1647 5.21004 -30.6984 -4.02255 -0.0828161 -4.79354 -0.368329 6.09959 -1.57543 -10.1355 5.99187 4.89418 
30.9528 101.896 -344.05 174.061 -78.2344 169.168 -179.054 4.50129 87.6544 -39.2401 -8.75142 5.69253 75.5739 1.45302 -28.8999 12.5466 -15.6261 13.5324 167.807 -13.7233 86.3732 -11.6483 -9.54663 2.35905 73.3581 -7.80349 0.817777 23.5211 -0.230644 8.89693 -1.29106 8.18973 -89.8339 10.5012 -2.49533 0.553127 -1.1675 -2.46856 0.662484 -23.7219 -2.54613 -0.222886 -3.70923 -2.54613 -0.222892 86.6047 -19.4667 -119.338 48.2601 -19.4692 -3.91272 -14.1352 -14.6888 -25.8278 -10.377 -0.0566295 -4.75759 -75.4156 -43.76 101.004 -39.0841 12.4079 5.6434 16.1445 3.14038 -31.3155 -3.05319 -0.101679 -2.78451 1.26265 5.91439 4.77753 -10.3552 5.04804 1.63545 
30.7056 101.61 -344.288 -171.661 -79.463 -177.916 -178.379 9.86567 84.4047 -35.7961 -2.35128 2.24608 72.5727 3.57949 -16.0198 18.2735 -11.1455 11.912 168.148 -9.10531 85.1555 -17.6238 -12.6637 1.33478 75.0572 -8.2747 0.131018 23.7748 0.208729 7.05125 -0.730536 8.341 -90.1871 10.1912 -1.54097 -0.240872 -1.47883 -1.55007 -0.172802 -24.0203 -1.39732 -0.692945 -4.00765 -1.39732 -0.692949 89.0167 -13.3545 -117.869 49.3331 -18.6613 -6.97334 -13.4668 -14.0901 -24.0697 -11.0194 -0.064703 -4.68676 -75.4326 -51.6505 100.67 -34.4352 12.9446 4.68916 14.5753 1.13164 -30.4687 -2.46155 -0.0911796 -3.00522 1.8162 5.91758 12.9628 -9.95215 3.98775 -2.73987 
30.5288 101.098 -343.14 -164.417 -79.695 -171.125 -178.335 11.9058 81.2646 -23.8792 7.08659 -0.247429 67.8682 5.3494 -0.662542 18.9524 -8.35219 7.80461 168.467 -8.17053 84.977 -20.0819 -12.7626 0.743115 76.969 -9.02179 0.274079 24.8987 -0.959328 9.75097 0.156923 8.47025 -90.5007 9.93269 0.0853612 -1.00057 -1.73864 0.0412519 -1.00337 -24.2711 0.38212 -0.928665 -4.25841 0.382118 -0.928676 92.6844 -10.2064 -110.13 51.0501 -19.7038 -9.36111 -14.311 -14.7619 -25.4716 -11.4224 -0.0710928 -4.62884 -81.1536 -59.0688 92.583 -27.8032 17.2178 4.48549 11.6516 -1.85579 -26.8913 -3.51386 -0.111779 -2.23526 0.920653 3.25407 18.1005 -9.03033 0.837014 -6.10863 
